<?xml version="1.0" standalone="no"?>
<!DOCTYPE svg PUBLIC "-//W3C//DTD SVG 20010904//EN"
 "http://www.w3.org/TR/2001/REC-SVG-20010904/DTD/svg10.dtd">
<svg version="1.0" xmlns="http://www.w3.org/2000/svg"
 width="800.000000pt" height="517.000000pt" viewBox="0 0 800.000000 517.000000"
 preserveAspectRatio="xMidYMid meet">

<g transform="translate(0.000000,517.000000) scale(0.100000,-0.100000)"
fill="#000000" stroke="none">
<path d="M5960 4993 c-38 -14 -366 -338 -2227 -2197 -1599 -1598 -2189 -2193
-2210 -2230 -37 -67 -40 -178 -6 -242 28 -53 74 -99 127 -127 59 -31 174 -31
236 2 64 33 4378 4345 4415 4413 95 174 -24 384 -223 394 -46 3 -81 -2 -112
-13z"/>
<path d="M3765 4494 c-311 -25 -640 -90 -945 -189 -768 -247 -1578 -750 -2300
-1426 -163 -153 -270 -265 -270 -283 0 -13 289 -300 415 -412 388 -344 832
-663 1236 -886 l65 -37 407 407 406 407 -29 83 c-53 149 -73 269 -73 442 0
179 21 302 80 460 156 421 519 735 963 835 43 10 141 19 232 22 185 6 304 -10
468 -63 l104 -35 258 258 c142 142 258 260 258 263 0 21 -415 109 -630 135
-128 16 -536 27 -645 19z"/>
<path d="M5545 3608 l-381 -383 28 -55 c43 -86 97 -263 114 -374 19 -123 14
-353 -11 -466 -117 -534 -535 -940 -1067 -1036 -138 -25 -354 -22 -488 5 -102
22 -256 74 -334 113 l-39 20 -268 -268 c-148 -148 -265 -272 -261 -275 13 -13
303 -89 452 -119 273 -55 388 -65 710 -65 315 0 431 10 690 61 867 170 1801
672 2633 1414 154 137 427 405 427 419 0 13 -346 349 -478 464 -296 259 -626
503 -942 699 -89 55 -395 228 -403 228 -1 0 -173 -172 -382 -382z"/>
<path d="M3810 3515 c-403 -86 -697 -411 -742 -819 -9 -81 -8 -128 1 -203 6
-53 14 -99 17 -102 2 -3 137 127 299 289 268 268 294 296 287 320 -4 14 -7 61
-7 105 0 67 4 89 28 136 30 63 92 125 159 161 38 20 57 23 160 23 l118 1 40
39 c36 35 38 40 23 49 -29 16 -309 17 -383 1z"/>
<path d="M4267 2332 c-328 -328 -597 -600 -597 -604 0 -4 30 -16 68 -27 384
-114 814 43 1037 378 111 168 161 351 152 561 -5 115 -33 259 -55 282 -4 4
-276 -261 -605 -590z"/>
</g>
</svg>
