<?xml version="1.0" standalone="no"?>
<!DOCTYPE svg PUBLIC "-//W3C//DTD SVG 20010904//EN"
 "http://www.w3.org/TR/2001/REC-SVG-20010904/DTD/svg10.dtd">
<svg version="1.0" xmlns="http://www.w3.org/2000/svg"
 width="800.000000pt" height="517.000000pt" viewBox="0 0 800.000000 517.000000"
 preserveAspectRatio="xMidYMid meet">

<g transform="translate(0.000000,517.000000) scale(0.100000,-0.100000)"
fill="#000000" stroke="none">
<path d="M3725 4463 c-996 -85 -2042 -585 -3020 -1442 -160 -140 -455 -431
-455 -449 0 -16 222 -239 375 -378 604 -546 1269 -972 1915 -1227 940 -370
1794 -392 2732 -68 791 272 1656 838 2352 1539 l129 130 -56 64 c-65 73 -268
267 -412 393 -466 407 -929 722 -1435 974 -517 257 -997 402 -1505 456 -126
13 -502 18 -620 8z m516 -589 c525 -99 938 -505 1054 -1034 25 -114 30 -354
11 -472 -94 -576 -550 -1027 -1121 -1108 -38 -5 -124 -10 -191 -10 -630 -1
-1162 436 -1295 1063 -30 141 -31 369 -1 512 56 275 185 511 383 700 225 215
477 330 809 369 63 7 269 -4 351 -20z"/>
<path d="M3865 3500 c-195 -31 -372 -119 -517 -258 -156 -150 -252 -344 -279
-564 -59 -488 289 -950 775 -1029 102 -16 300 -7 391 19 265 73 478 247 597
487 69 139 98 261 98 416 0 508 -389 911 -900 933 -58 3 -132 1 -165 -4z m281
-130 c212 -104 254 -385 82 -546 -218 -204 -569 -51 -568 249 1 111 59 219
152 278 105 67 223 74 334 19z"/>
</g>
</svg>
